<svg
            width="30"
            height="42"
            viewBox="0 0 30 42"
            fill="none"
            xmlns="http://www.w3.org/2000/svg"
          >
            <circle cx="8" cy="19" r="8" fill="#012345" />
            <circle cx="26" cy="4" r="4" fill="#4959FF" />
            <path
              d="M7 42C10.0204 42 13.0112 41.4051 15.8017 40.2492C18.5922 39.0934 21.1277 37.3992 23.2635 35.2635C25.3992 33.1277 27.0934 30.5922 28.2492 27.8017C29.4051 25.0112 30 22.0204 30 19H21.72C21.72 20.9331 21.3393 22.8472 20.5995 24.6331C19.8598 26.419 18.7755 28.0417 17.4086 29.4086C16.0417 30.7755 14.419 31.8598 12.6331 32.5995C10.8472 33.3393 8.93306 33.72 7 33.72L7 42Z"
              fill="#4959FF"
            />
          </svg>